<svg width="32" height="32" viewBox="0 0 24 24" fill="none" xmlns="http://www.w3.org/2000/svg">
  <defs>
    <linearGradient id="shellGradient" x1="0%" y1="0%" x2="100%" y2="100%">
      <stop offset="0%" style="stop-color:#ff8c00;stop-opacity:1" />
      <stop offset="50%" style="stop-color:#ffd700;stop-opacity:1" />
      <stop offset="100%" style="stop-color:#ffa500;stop-opacity:1" />
    </linearGradient>
  </defs>
  
  <!-- Spiral pattern representing spirograph -->
  <path d="M12 2C6.48 2 2 6.48 2 12s4.48 10 10 10 10-4.48 10-10S17.52 2 12 2z" 
        fill="url(#shellGradient)" 
        opacity="0.1"/>
  
  <!-- Main spiral -->
  <path d="M12 4c-4.41 0-8 3.59-8 8s3.59 8 8 8 8-3.59 8-8-3.59-8-8-8zm0 14c-3.31 0-6-2.69-6-6s2.69-6 6-6 6 2.69 6 6-2.69 6-6 6z" 
        fill="url(#shellGradient)" 
        opacity="0.3"/>
  
  <!-- Inner spiral -->
  <path d="M12 6c-3.31 0-6 2.69-6 6s2.69 6 6 6 6-2.69 6-6-2.69-6-6-6zm0 10c-2.21 0-4-1.79-4-4s1.79-4 4-4 4 1.79 4 4-1.79 4-4 4z" 
        fill="url(#shellGradient)" 
        opacity="0.5"/>
  
  <!-- Center point -->
  <circle cx="12" cy="12" r="2" fill="url(#shellGradient)"/>
  
  <!-- Spirograph curve overlay -->
  <path d="M12 8c-2.21 0-4 1.79-4 4s1.79 4 4 4 4-1.79 4-4-1.79-4-4-4zm0 6c-1.1 0-2-.9-2-2s.9-2 2-2 2 .9 2 2-.9 2-2 2z" 
        fill="none" 
        stroke="url(#shellGradient)" 
        stroke-width="1.5" 
        opacity="0.8"/>
</svg> 